<mxfile host="app.diagrams.net" modified="2024-03-03T08:16:34.465Z" agent="Mozilla/5.0 (X11; Linux x86_64; rv:123.0) Gecko/20100101 Firefox/123.0" etag="8OsTvxYMgQ5EgFwSRqPR" version="22.1.16" type="device">
  <diagram name="Page-1" id="ijKU6omm411AxzlGt9A5">
    <mxGraphModel dx="691" dy="371" grid="1" gridSize="10" guides="1" tooltips="1" connect="1" arrows="1" fold="1" page="1" pageScale="1" pageWidth="850" pageHeight="1100" background="none" math="0" shadow="0">
      <root>
        <mxCell id="0" />
        <mxCell id="1" parent="0" />
        <mxCell id="vYJTW-IyGAqJvvr4b3gr-3" value="" style="rounded=0;whiteSpace=wrap;html=1;movable=1;resizable=1;rotatable=1;deletable=1;editable=1;locked=0;connectable=1;" vertex="1" parent="1">
          <mxGeometry x="210" y="40" width="300" height="200" as="geometry" />
        </mxCell>
        <mxCell id="vYJTW-IyGAqJvvr4b3gr-57" value="" style="endArrow=classic;html=1;rounded=0;" edge="1" parent="1">
          <mxGeometry width="50" height="50" relative="1" as="geometry">
            <mxPoint x="370" y="210" as="sourcePoint" />
            <mxPoint x="510" y="120" as="targetPoint" />
            <Array as="points">
              <mxPoint x="370" y="120" />
            </Array>
          </mxGeometry>
        </mxCell>
        <mxCell id="vYJTW-IyGAqJvvr4b3gr-58" value="" style="endArrow=classic;html=1;rounded=0;exitX=1;exitY=0.5;exitDx=0;exitDy=0;edgeStyle=elbowEdgeStyle;" edge="1" parent="1" source="vYJTW-IyGAqJvvr4b3gr-55">
          <mxGeometry width="50" height="50" relative="1" as="geometry">
            <mxPoint x="360" y="280" as="sourcePoint" />
            <mxPoint x="510" y="130" as="targetPoint" />
          </mxGeometry>
        </mxCell>
        <mxCell id="vYJTW-IyGAqJvvr4b3gr-61" value="" style="shape=flexArrow;endArrow=classic;startArrow=block;html=1;rounded=0;entryX=0.5;entryY=1;entryDx=0;entryDy=0;fillColor=#000000;elbow=vertical;strokeWidth=0;targetPerimeterSpacing=0;startFill=0;startSize=4;endSize=4;" edge="1" parent="1" target="vYJTW-IyGAqJvvr4b3gr-55">
          <mxGeometry width="100" height="100" relative="1" as="geometry">
            <mxPoint x="425" y="268" as="sourcePoint" />
            <mxPoint x="460" y="230" as="targetPoint" />
          </mxGeometry>
        </mxCell>
        <mxCell id="vYJTW-IyGAqJvvr4b3gr-4" value="" style="endArrow=none;html=1;rounded=0;entryX=1.001;entryY=0.721;entryDx=0;entryDy=0;entryPerimeter=0;" edge="1" parent="1">
          <mxGeometry width="50" height="50" relative="1" as="geometry">
            <mxPoint x="510" y="180" as="sourcePoint" />
            <mxPoint x="210" y="180" as="targetPoint" />
          </mxGeometry>
        </mxCell>
        <mxCell id="vYJTW-IyGAqJvvr4b3gr-6" value="" style="endArrow=none;html=1;rounded=0;strokeWidth=2;" edge="1" parent="1">
          <mxGeometry width="50" height="50" relative="1" as="geometry">
            <mxPoint x="229" y="211" as="sourcePoint" />
            <mxPoint x="229" y="69" as="targetPoint" />
          </mxGeometry>
        </mxCell>
        <mxCell id="vYJTW-IyGAqJvvr4b3gr-7" value="" style="endArrow=none;html=1;rounded=0;" edge="1" parent="1">
          <mxGeometry width="50" height="50" relative="1" as="geometry">
            <mxPoint x="229" y="70" as="sourcePoint" />
            <mxPoint x="210" y="50" as="targetPoint" />
          </mxGeometry>
        </mxCell>
        <mxCell id="vYJTW-IyGAqJvvr4b3gr-8" value="" style="endArrow=none;html=1;rounded=0;" edge="1" parent="1">
          <mxGeometry width="50" height="50" relative="1" as="geometry">
            <mxPoint x="229" y="100" as="sourcePoint" />
            <mxPoint x="210" y="80" as="targetPoint" />
          </mxGeometry>
        </mxCell>
        <mxCell id="vYJTW-IyGAqJvvr4b3gr-10" value="" style="endArrow=none;html=1;rounded=0;" edge="1" parent="1">
          <mxGeometry width="50" height="50" relative="1" as="geometry">
            <mxPoint x="229" y="130" as="sourcePoint" />
            <mxPoint x="210" y="110" as="targetPoint" />
          </mxGeometry>
        </mxCell>
        <mxCell id="vYJTW-IyGAqJvvr4b3gr-11" value="" style="endArrow=none;html=1;rounded=0;" edge="1" parent="1">
          <mxGeometry width="50" height="50" relative="1" as="geometry">
            <mxPoint x="229" y="160" as="sourcePoint" />
            <mxPoint x="210" y="140" as="targetPoint" />
          </mxGeometry>
        </mxCell>
        <mxCell id="vYJTW-IyGAqJvvr4b3gr-12" value="fIdu" style="text;html=1;strokeColor=none;fillColor=none;align=center;verticalAlign=middle;whiteSpace=wrap;rounded=0;" vertex="1" parent="1">
          <mxGeometry x="220" y="50" width="60" height="30" as="geometry" />
        </mxCell>
        <mxCell id="vYJTW-IyGAqJvvr4b3gr-23" value="op1" style="text;html=1;strokeColor=none;fillColor=none;align=center;verticalAlign=middle;whiteSpace=wrap;rounded=0;" vertex="1" parent="1">
          <mxGeometry x="220" y="80" width="60" height="30" as="geometry" />
        </mxCell>
        <mxCell id="vYJTW-IyGAqJvvr4b3gr-33" value="fCsr" style="text;html=1;strokeColor=none;fillColor=none;align=center;verticalAlign=middle;whiteSpace=wrap;rounded=0;" vertex="1" parent="1">
          <mxGeometry x="220" y="110" width="60" height="30" as="geometry" />
        </mxCell>
        <mxCell id="vYJTW-IyGAqJvvr4b3gr-34" value="mOut" style="text;html=1;strokeColor=none;fillColor=none;align=center;verticalAlign=middle;whiteSpace=wrap;rounded=0;" vertex="1" parent="1">
          <mxGeometry x="220" y="140" width="60" height="30" as="geometry" />
        </mxCell>
        <mxCell id="vYJTW-IyGAqJvvr4b3gr-36" value="" style="endArrow=classic;html=1;rounded=0;strokeWidth=2;entryX=0;entryY=0.5;entryDx=0;entryDy=0;" edge="1" parent="1" target="vYJTW-IyGAqJvvr4b3gr-39">
          <mxGeometry width="50" height="50" relative="1" as="geometry">
            <mxPoint x="229" y="210" as="sourcePoint" />
            <mxPoint x="270" y="250" as="targetPoint" />
          </mxGeometry>
        </mxCell>
        <mxCell id="vYJTW-IyGAqJvvr4b3gr-56" style="rounded=0;orthogonalLoop=1;jettySize=auto;html=1;exitX=1;exitY=0.5;exitDx=0;exitDy=0;strokeWidth=1;endArrow=none;endFill=0;" edge="1" parent="1" source="vYJTW-IyGAqJvvr4b3gr-39" target="vYJTW-IyGAqJvvr4b3gr-55">
          <mxGeometry relative="1" as="geometry" />
        </mxCell>
        <mxCell id="vYJTW-IyGAqJvvr4b3gr-39" value="PC生成" style="rounded=0;whiteSpace=wrap;html=1;" vertex="1" parent="1">
          <mxGeometry x="270" y="190" width="80" height="40" as="geometry" />
        </mxCell>
        <mxCell id="vYJTW-IyGAqJvvr4b3gr-55" value="内存取指" style="rounded=0;whiteSpace=wrap;html=1;" vertex="1" parent="1">
          <mxGeometry x="385" y="190" width="80" height="40" as="geometry" />
        </mxCell>
        <mxCell id="vYJTW-IyGAqJvvr4b3gr-59" value="PC" style="text;html=1;strokeColor=none;fillColor=none;align=center;verticalAlign=middle;whiteSpace=wrap;rounded=0;" vertex="1" parent="1">
          <mxGeometry x="440" y="100" width="60" height="30" as="geometry" />
        </mxCell>
        <mxCell id="vYJTW-IyGAqJvvr4b3gr-60" value="Inst" style="text;html=1;strokeColor=none;fillColor=none;align=center;verticalAlign=middle;whiteSpace=wrap;rounded=0;" vertex="1" parent="1">
          <mxGeometry x="440" y="120" width="60" height="30" as="geometry" />
        </mxCell>
        <mxCell id="vYJTW-IyGAqJvvr4b3gr-66" value="" style="edgeStyle=orthogonalEdgeStyle;rounded=0;orthogonalLoop=1;jettySize=auto;html=1;" edge="1" parent="1" source="vYJTW-IyGAqJvvr4b3gr-62" target="vYJTW-IyGAqJvvr4b3gr-55">
          <mxGeometry relative="1" as="geometry" />
        </mxCell>
        <mxCell id="vYJTW-IyGAqJvvr4b3gr-62" value="AXI主机仲裁器_P0" style="rounded=0;whiteSpace=wrap;html=1;shadow=1;" vertex="1" parent="1">
          <mxGeometry x="365" y="268" width="120" height="37" as="geometry" />
        </mxCell>
      </root>
    </mxGraphModel>
  </diagram>
</mxfile>
